<svg xmlns="http://www.w3.org/2000/svg" width="120" height="120" viewBox="0 0 120 120" fill="none">
  <rect width="120" height="120" rx="8" fill="#F3F4F6"/>
  <path d="M60 30C43.4315 30 30 43.4315 30 60C30 76.5685 43.4315 90 60 90C76.5685 90 90 76.5685 90 60C90 43.4315 76.5685 30 60 30ZM60 35C74.3594 35 85 45.6406 85 60C85 74.3594 74.3594 85 60 85C45.6406 85 35 74.3594 35 60C35 45.6406 45.6406 35 60 35Z" fill="#CBD5E1"/>
  <path d="M57.5 70C57.5 71.3807 58.6193 72.5 60 72.5C61.3807 72.5 62.5 71.3807 62.5 70C62.5 68.6193 61.3807 67.5 60 67.5C58.6193 67.5 57.5 68.6193 57.5 70Z" fill="#94A3B8"/>
  <path d="M60 65C61.3807 65 62.5 63.8807 62.5 62.5V50C62.5 48.6193 61.3807 47.5 60 47.5C58.6193 47.5 57.5 48.6193 57.5 50V62.5C57.5 63.8807 58.6193 65 60 65Z" fill="#94A3B8"/>
</svg> 